Tom Petty and the Heartbreakers in a blatant example of crass commercialism, seem to believe that great music and award winning visuals and never-before-seen comic vignettes are all it takes to dupe the public into acquiring this compilation of their classic videos. Well...maybe they're right!

Tom Petty & the Heartbreakers - A Bunch Of Videos and Some Other Stuff (1989).mp4

Format                                   : MPEG-4
Format profile                           : Base Media
Codec ID                                 : isom
File size                                : 646 MiB
Duration                                 : 1h 5mn
Overall bit rate mode                    : Variable
Overall bit rate                         : 1 386 Kbps
Writing application                      : Lavf52.94.0

Video
ID                                       : 1
Format                                   : AVC
Format/Info                              : Advanced Video Codec
Format profile                           : Main@L3.0
Format settings, CABAC                   : Yes
Format settings, ReFrames                : 2 frames
Codec ID                                 : avc1
Codec ID/Info                            : Advanced Video Coding
Duration                                 : 1h 5mn
Bit rate                                 : 1 214 Kbps
Width                                    : 720 pixels
Height                                   : 480 pixels
Display aspect ratio                     : 3:2
Frame rate mode                          : Constant
Frame rate                               : 29.970 fps
Standard                                 : NTSC
Color space                              : YUV
Chroma subsampling                       : 4:2:0
Bit depth                                : 8 bits
Scan type                                : Progressive
Bits/(Pixel*Frame)                       : 0.117
Stream size                              : 566 MiB (88%)
Writing library                          : x264 core 112 r1834 a51816a

Audio
ID                                       : 2
Format                                   : AAC
Format/Info                              : Advanced Audio Codec
Format profile                           : LC
Codec ID                                 : 40
Duration                                 : 1h 5mn
Bit rate mode                            : Variable
Bit rate                                 : 165 Kbps
Channel(s)                               : 2 channels
Channel positions                        : Front: L R
Sampling rate                            : 48.0 KHz
Compression mode                         : Lossy
Delay relative to video                  : -1s 1ms
Stream size                              : 77.1 MiB (12%)

